<svg width="14" height="16" viewBox="0 0 14 16" fill="none" xmlns="http://www.w3.org/2000/svg">
<path fill-rule="evenodd" clip-rule="evenodd" d="M5.67271 1.91047C3.41402 2.49139 1.7454 4.5408 1.7454 6.98163V10.4722C1.7454 10.794 1.48409 11.0546 1.16424 11.0546C0.521152 11.0546 0 11.5769 0 12.2183C0 12.8609 0.521895 13.3818 1.16639 13.3818H12.7971C13.4413 13.3818 13.9635 12.8597 13.9635 12.2183C13.9635 11.5755 13.4399 11.0546 12.7992 11.0546C12.4782 11.0546 12.2181 10.7959 12.2181 10.4722V6.98163C12.2181 4.54178 10.5497 2.49164 8.29077 1.91047V1.30939C8.29077 0.584484 7.70456 0 6.98162 0C6.26009 0 5.67266 0.586204 5.67266 1.30939L5.67271 1.91047ZM4.94541 13.9638H9.01812C9.01812 15.0885 8.10629 16 6.98167 16C5.85705 16 4.94547 15.0884 4.94547 13.9638H4.94541Z" fill="#7B809A"/>
</svg>
