<svg width="14" height="12" viewBox="0 0 14 12" fill="none" xmlns="http://www.w3.org/2000/svg">
<path d="M12.8 0.73333C11.4666 1.2 9.59998 1.66666 6.99998 1.66666C4.39998 1.66666 2.39998 1.13333 1.19998 0.73333C0.79998 0.53333 0.333313 0.866663 0.333313 1.33333V10.6667C0.333313 11.1333 0.79998 11.4667 1.19998 11.3333C2.59998 10.8667 4.39998 10.3333 6.99998 10.3333C9.59998 10.3333 11.4666 10.8667 12.8 11.3333C13.2666 11.4667 13.6666 11.1333 13.6666 10.6667V1.33333C13.6666 0.866663 13.2 0.53333 12.8 0.73333ZM6.99998 8C5.46665 8 3.99998 8.06666 2.66665 8.26666L5.13331 5.33333L6.46665 6.93333L8.33331 4.66666L11.3333 8.26666C9.99998 8.06666 8.53331 8 6.99998 8Z" fill="white"/>
</svg>
