<svg width="16" height="16" viewBox="0 0 16 16" fill="none" xmlns="http://www.w3.org/2000/svg">
<path fill-rule="evenodd" clip-rule="evenodd" d="M6.36982 0.154755C6.89677 0.0575024 7.44287 0 7.99994 0C8.55717 0 9.10305 0.0575024 9.63022 0.154755L10.1085 1.8393C11.0382 2.12334 11.8802 2.59154 12.5886 3.19641L14.3697 2.7441C14.7224 3.12715 15.0479 3.54363 15.3265 4.00005C15.6051 4.45631 15.8256 4.93047 16 5.41074L14.6972 6.64281C14.796 7.08097 14.8482 7.53393 14.8482 7.99992C14.8482 8.46607 14.796 8.91899 14.6972 9.35703L16 10.5893C15.8255 11.0695 15.6051 11.5437 15.3265 11.9999C15.0479 12.4562 14.7224 12.8729 14.3697 13.2559L12.5886 12.8036C11.8802 13.4085 11.0382 13.8766 10.1085 14.1607L9.63022 15.8452C9.1031 15.9425 8.55717 16 7.99994 16C7.44287 16 6.89682 15.9425 6.36982 15.8452L5.89135 14.1607C4.9618 13.8767 4.11982 13.4085 3.41143 12.8036L1.63012 13.2559C1.27758 12.8728 0.95196 12.4562 0.673516 11.9999C0.394906 11.5437 0.174444 11.0695 0 10.5893L1.30284 9.35703C1.20399 8.91903 1.15182 8.46607 1.15182 7.99992C1.15182 7.53393 1.20399 7.08101 1.30284 6.64281L0 5.41074C0.174461 4.93047 0.394906 4.45631 0.673516 4.00005C0.951965 3.54363 1.27757 3.12713 1.63012 2.7441L3.41143 3.19641C4.11986 2.59154 4.96184 2.12336 5.89135 1.8393L6.36982 0.154755ZM8 11C9.65685 11 11 9.65685 11 8C11 6.34315 9.65685 5 8 5C6.34315 5 5 6.34315 5 8C5 9.65685 6.34315 11 8 11Z" fill="#7B809A"/>
</svg>
